<?xml version="1.0" encoding="iso-8859-1"?>
<!-- Uploaded to: SVG Repo, www.svgrepo.com, Generator: SVG Repo Mixer Tools -->
<!DOCTYPE svg PUBLIC "-//W3C//DTD SVG 1.1//EN" "http://www.w3.org/Graphics/SVG/1.1/DTD/svg11.dtd">
<svg fill="#000000" version="1.1" id="Capa_1" xmlns="http://www.w3.org/2000/svg" xmlns:xlink="http://www.w3.org/1999/xlink" 
	 width="800px" height="800px" viewBox="0 0 60.731 60.73"
	 xml:space="preserve">
<g>
	<g>
		<path d="M22.844,4.84c4.906-4.651,15.403-3.409,18.731,1.247c3.982,1.486,9.501,8.325,5.374,17.189
			c0.541,3.455-0.976,5.94-3.547,8.041c-1.937,1.578-2.315,3.866-1.448,6.17c0.598,1.579,3.106,4.973,3.106,4.973H14.824
			c0.03-11.559,13.232-18.52,13.412-19.442c0.29-1.478-0.569-2.124-2.035-1.943c-0.932,0.117-1.92,0.014-2.854-0.154
			c-1.859-0.332-3.452-0.136-4.513,1.67c-0.17,0.283-0.484,0.557-0.794,0.678c-1.246,0.479-4.593-0.754-5.233-1.893
			c-0.957-1.689-0.459-3.884,1.201-5.155c1.877-1.434,3.865-2.746,5.643-4.297c1.763-1.538,3.092-3.542,5.31-4.62L22.844,4.84z"/>
		<path d="M0,44.804v14.016h60.731V44.804H0z M11.452,56.275L8.547,54.75l-2.904,1.525l0.555-3.234L3.85,50.753l3.247-0.475
			l1.451-2.938l1.455,2.938l3.244,0.475l-2.347,2.288L11.452,56.275z M22.447,56.275l-2.902-1.525l-2.904,1.525l0.553-3.234
			l-2.347-2.288l3.247-0.475l1.451-2.938L21,50.278l3.244,0.475l-2.35,2.288L22.447,56.275z M33.327,56.275l-2.903-1.525
			l-2.903,1.525l0.553-3.234l-2.347-2.288l3.246-0.475l1.451-2.938l1.453,2.938l3.247,0.475l-2.347,2.288L33.327,56.275z
			 M44.208,56.275l-2.906-1.525L38.4,56.275l0.552-3.234l-2.345-2.288l3.243-0.475l1.451-2.938l1.45,2.938L46,50.753l-2.35,2.288
			L44.208,56.275z M55.083,56.275l-2.901-1.525l-2.906,1.525l0.557-3.234l-2.35-2.288l3.248-0.475l1.451-2.938l1.455,2.938
			l3.243,0.475l-2.349,2.288L55.083,56.275z"/>
	</g>
</g>
</svg>